<?xml version="1.0" encoding="UTF-8"?>
<svg width="267px" height="43px" viewBox="0 0 267 43" version="1.1" xmlns="http://www.w3.org/2000/svg" xmlns:xlink="http://www.w3.org/1999/xlink">
    <!-- Generator: Sketch 64 (93537) - https://sketch.com -->
    <title>logo_license_white</title>
    <desc>Created with Sketch.</desc>
    <g id="Desktop" stroke="none" stroke-width="1" fill="none" fill-rule="evenodd">
        <g id="Sign-Up-1" transform="translate(-227.000000, -495.000000)">
            <g id="logo_license_white" transform="translate(227.000000, 495.000000)">
                <path d="M15.0552,34.5368 C16.0637333,34.5368 16.9665333,34.4717333 17.7636,34.3416 C18.5606667,34.2114667 19.2357333,34.0569333 19.7888,33.878 C20.3418667,33.6990667 20.7892,33.5282667 21.1308,33.3656 C21.4724,33.2029333 21.692,33.0890667 21.7896,33.024 L21.7896,33.024 L21.0088,28.1928 C20.7485333,28.2904 20.2117333,28.5018667 19.3984,28.8272 C18.5850667,29.1525333 17.5765333,29.3152 16.3728,29.3152 C15.4293333,29.3152 14.6485333,29.0386667 14.0304,28.4856 C13.4122667,27.9325333 13.1032,26.8752 13.1032,25.3136 L13.1032,25.3136 L13.1032,0.4256 L0.7568,0.4256 L0.7568,5.4032 L7.1008,5.4032 L7.1008,24.8744 C7.1008,28.0301333 7.7352,30.4294667 9.004,32.0724 C10.2728,33.7153333 12.2898667,34.5368 15.0552,34.5368 Z M33.4528,8.2824 C34.4938667,8.2824 35.3885333,7.9408 36.1368,7.2576 C36.8850667,6.5744 37.2592,5.6472 37.2592,4.476 C37.2592,3.27226667 36.8850667,2.3288 36.1368,1.6456 C35.3885333,0.9624 34.4938667,0.6208 33.4528,0.6208 C32.4117333,0.6208 31.5252,0.9624 30.7932,1.6456 C30.0612,2.3288 29.6952,3.27226667 29.6952,4.476 C29.6952,5.6472 30.0612,6.5744 30.7932,7.2576 C31.5252,7.9408 32.4117333,8.2824 33.4528,8.2824 Z M39.6992,34.5368 C40.6101333,34.5368 41.6105333,34.4310667 42.7004,34.2196 C43.7902667,34.0081333 44.9533333,33.6096 46.1896,33.024 L46.1896,33.024 L45.4088,28.1928 C44.4328,28.6482667 43.5544,28.9492 42.7736,29.0956 C41.9928,29.242 41.3258667,29.3152 40.7728,29.3152 C39.6016,29.3152 38.7638667,28.9817333 38.2596,28.3148 C37.7553333,27.6478667 37.5032,26.6312 37.5032,25.2648 L37.5032,25.2648 L37.5032,11.064 L25.1568,11.064 L25.1568,16.0416 L31.5008,16.0416 L31.5008,24.484 C31.5008,26.0781333 31.6309333,27.4933333 31.8912,28.7296 C32.1514667,29.9658667 32.5988,31.0150667 33.2332,31.8772 C33.8676,32.7393333 34.7134667,33.3981333 35.7708,33.8536 C36.8281333,34.3090667 38.1376,34.5368 39.6992,34.5368 Z M63.2208,34.5368 C64.8474667,34.5368 66.2626667,34.4310667 67.4664,34.2196 C68.6701333,34.0081333 69.6949333,33.7397333 70.5408,33.4144 L70.5408,33.4144 L69.6624,28.4856 C68.8165333,28.7784 67.8812,28.9898667 66.8564,29.12 C65.8316,29.2501333 64.8474667,29.3152 63.904,29.3152 C61.0410667,29.3152 59.0158667,28.7133333 57.8284,27.5096 C56.6409333,26.3058667 56.0472,24.6466667 56.0472,22.532 C56.0472,21.556 56.1773333,20.6450667 56.4376,19.7992 C56.6978667,18.9533333 57.1208,18.2294667 57.7064,17.6276 C58.292,17.0257333 59.0646667,16.554 60.0244,16.2124 C60.9841333,15.8708 62.1797333,15.7 63.6112,15.7 C64.8474667,15.7 65.8641333,15.7894667 66.6612,15.9684 C67.4582667,16.1473333 68.1821333,16.3506667 68.8328,16.5784 L68.8328,16.5784 L70.1504,11.7472 C69.0117333,11.2917333 67.8893333,10.9664 66.7832,10.7712 C65.6770667,10.576 64.4408,10.4784 63.0744,10.4784 C60.7970667,10.4784 58.8369333,10.7956 57.194,11.43 C55.5510667,12.0644 54.1928,12.9265333 53.1192,14.0164 C52.0456,15.1062667 51.2485333,16.3832 50.728,17.8472 C50.2074667,19.3112 49.9472,20.8728 49.9472,22.532 C49.9472,24.2237333 50.1993333,25.8016 50.7036,27.2656 C51.2078667,28.7296 51.9968,29.9984 53.0704,31.072 C54.144,32.1456 55.5185333,32.9914667 57.194,33.6096 C58.8694667,34.2277333 60.8784,34.5368 63.2208,34.5368 Z M86.3032,34.5368 C87.7672,34.5368 89.0848,34.4148 90.256,34.1708 C91.4272,33.9268 92.5333333,33.6258667 93.5744,33.268 L93.5744,33.268 L92.7448,28.144 C91.9965333,28.4042667 91.0774667,28.6645333 89.9876,28.9248 C88.8977333,29.1850667 87.7509333,29.3152 86.5472,29.3152 C84.5952,29.3152 83.0010667,28.8841333 81.7648,28.022 C80.5285333,27.1598667 79.9104,25.9805333 79.9104,24.484 L79.9104,24.484 L94.7944,24.484 C94.8269333,24.2237333 94.8513333,23.8821333 94.8676,23.4592 C94.8838667,23.0362667 94.892,22.6296 94.892,22.2392 C94.892,18.4002667 94.0136,15.4804 92.2568,13.4796 C90.5,11.4788 87.9298667,10.4784 84.5464,10.4784 C83.18,10.4784 81.8461333,10.7386667 80.5448,11.2592 C79.2434667,11.7797333 78.0885333,12.5524 77.08,13.5772 C76.0714667,14.602 75.2581333,15.8789333 74.64,17.408 C74.0218667,18.9370667 73.7128,20.7101333 73.7128,22.7272 C73.7128,24.6792 74.0056,26.3872 74.5912,27.8512 C75.1768,29.3152 76.0145333,30.5433333 77.1044,31.5356 C78.1942667,32.5278667 79.5118667,33.2761333 81.0572,33.7804 C82.6025333,34.2846667 84.3512,34.5368 86.3032,34.5368 Z M89.0848,20.336 L79.9104,20.336 C79.9754667,19.7178667 80.1137333,19.116 80.3252,18.5304 C80.5366667,17.9448 80.8294667,17.4242667 81.2036,16.9688 C81.5777333,16.5133333 82.0494667,16.1554667 82.6188,15.8952 C83.1881333,15.6349333 83.8632,15.5048 84.644,15.5048 C85.4573333,15.5048 86.1405333,15.6430667 86.6936,15.9196 C87.2466667,16.1961333 87.7021333,16.5621333 88.06,17.0176 C88.4178667,17.4730667 88.6781333,17.9854667 88.8408,18.5548 C89.0034667,19.1241333 89.0848,19.7178667 89.0848,20.336 L89.0848,20.336 Z M105.6768,34 L105.6768,15.9928 C106.1648,15.9277333 106.6284,15.8789333 107.0676,15.8464 C107.5068,15.8138667 107.954133,15.7976 108.4096,15.7976 C109.906133,15.7976 110.8984,16.2693333 111.3864,17.2128 C111.8744,18.1562667 112.1184,19.7016 112.1184,21.8488 L112.1184,21.8488 L112.1184,34 L118.1208,34 L118.1208,21.068 C118.1208,19.5064 117.9744,18.0830667 117.6816,16.798 C117.3888,15.5129333 116.892667,14.4068 116.1932,13.4796 C115.493733,12.5524 114.542133,11.8366667 113.3384,11.3324 C112.134667,10.8281333 110.621867,10.576 108.8,10.576 C106.9456,10.576 105.229467,10.7061333 103.6516,10.9664 C102.073733,11.2266667 100.748,11.5032 99.6744,11.796 L99.6744,11.796 L99.6744,34 L105.6768,34 Z M132.0776,34.5368 C134.0296,34.5368 135.672533,34.3578667 137.0064,34 C138.340267,33.6421333 139.422,33.1541333 140.2516,32.536 C141.0812,31.9178667 141.674933,31.1858667 142.0328,30.34 C142.390667,29.4941333 142.5696,28.5994667 142.5696,27.656 C142.5696,26.4522667 142.3256,25.4356 141.8376,24.606 C141.3496,23.7764 140.723333,23.0932 139.9588,22.5564 C139.194267,22.0196 138.340267,21.5722667 137.3968,21.2144 C136.453333,20.8565333 135.5424,20.5312 134.664,20.2384 C134.045867,20.0432 133.4684,19.8398667 132.9316,19.6284 C132.3948,19.4169333 131.923067,19.1973333 131.5164,18.9696 C131.109733,18.7418667 130.7844,18.4897333 130.5404,18.2132 C130.2964,17.9366667 130.1744,17.6194667 130.1744,17.2616 C130.1744,16.8386667 130.4428,16.4401333 130.9796,16.066 C131.5164,15.6918667 132.549333,15.5048 134.0784,15.5048 C135.5424,15.5048 136.86,15.6918667 138.0312,16.066 C139.2024,16.4401333 140.064533,16.7085333 140.6176,16.8712 L140.6176,16.8712 L141.5448,11.796 C140.601333,11.3730667 139.487067,11.0477333 138.202,10.82 C136.916933,10.5922667 135.526133,10.4784 134.0296,10.4784 C132.305333,10.4784 130.825067,10.6654667 129.5888,11.0396 C128.352533,11.4137333 127.335867,11.9342667 126.5388,12.6012 C125.741733,13.2681333 125.156133,14.0326667 124.782,14.8948 C124.407867,15.7569333 124.2208,16.676 124.2208,17.652 C124.2208,18.8557333 124.4648,19.8561333 124.9528,20.6532 C125.4408,21.4502667 126.058933,22.1090667 126.8072,22.6296 C127.555467,23.1501333 128.385067,23.5812 129.296,23.9228 C130.206933,24.2644 131.1016,24.5653333 131.98,24.8256 C132.598133,25.0208 133.191867,25.216 133.7612,25.4112 C134.330533,25.6064 134.8348,25.8097333 135.274,26.0212 C135.7132,26.2326667 136.0548,26.4848 136.2988,26.7776 C136.5428,27.0704 136.6648,27.4282667 136.6648,27.8512 C136.6648,28.5018667 136.2744,28.9329333 135.4936,29.1444 C134.7128,29.3558667 133.5904,29.4616 132.1264,29.4616 C130.792533,29.4616 129.483067,29.2664 128.198,28.876 C126.912933,28.4856 125.701067,28.0626667 124.5624,27.6072 L124.5624,27.6072 L123.6352,32.6336 C124.481067,32.9914667 125.603467,33.3981333 127.0024,33.8536 C128.401333,34.3090667 130.093067,34.5368 132.0776,34.5368 Z M159.5032,34.5368 C160.9672,34.5368 162.2848,34.4148 163.456,34.1708 C164.6272,33.9268 165.733333,33.6258667 166.7744,33.268 L166.7744,33.268 L165.9448,28.144 C165.196533,28.4042667 164.277467,28.6645333 163.1876,28.9248 C162.097733,29.1850667 160.950933,29.3152 159.7472,29.3152 C157.7952,29.3152 156.201067,28.8841333 154.9648,28.022 C153.728533,27.1598667 153.1104,25.9805333 153.1104,24.484 L153.1104,24.484 L167.9944,24.484 C168.026933,24.2237333 168.051333,23.8821333 168.0676,23.4592 C168.083867,23.0362667 168.092,22.6296 168.092,22.2392 C168.092,18.4002667 167.2136,15.4804 165.4568,13.4796 C163.7,11.4788 161.129867,10.4784 157.7464,10.4784 C156.38,10.4784 155.046133,10.7386667 153.7448,11.2592 C152.443467,11.7797333 151.288533,12.5524 150.28,13.5772 C149.271467,14.602 148.458133,15.8789333 147.84,17.408 C147.221867,18.9370667 146.9128,20.7101333 146.9128,22.7272 C146.9128,24.6792 147.2056,26.3872 147.7912,27.8512 C148.3768,29.3152 149.214533,30.5433333 150.3044,31.5356 C151.394267,32.5278667 152.711867,33.2761333 154.2572,33.7804 C155.802533,34.2846667 157.5512,34.5368 159.5032,34.5368 Z M162.2848,20.336 L153.1104,20.336 C153.175467,19.7178667 153.313733,19.116 153.5252,18.5304 C153.736667,17.9448 154.029467,17.4242667 154.4036,16.9688 C154.777733,16.5133333 155.249467,16.1554667 155.8188,15.8952 C156.388133,15.6349333 157.0632,15.5048 157.844,15.5048 C158.657333,15.5048 159.340533,15.6430667 159.8936,15.9196 C160.446667,16.1961333 160.902133,16.5621333 161.26,17.0176 C161.617867,17.4730667 161.878133,17.9854667 162.0408,18.5548 C162.203467,19.1241333 162.2848,19.7178667 162.2848,20.336 L162.2848,20.336 Z M182.0488,34.5368 C183.187467,34.5368 184.196,34.1626667 185.0744,33.4144 C185.9528,32.6661333 186.392,31.5762667 186.392,30.1448 C186.392,28.7784 185.9528,27.7210667 185.0744,26.9728 C184.196,26.2245333 183.187467,25.8504 182.0488,25.8504 C181.4632,25.8504 180.910133,25.948 180.3896,26.1432 C179.869067,26.3384 179.405467,26.6149333 178.9988,26.9728 C178.592133,27.3306667 178.2668,27.778 178.0228,28.3148 C177.7788,28.8516 177.6568,29.4616 177.6568,30.1448 C177.6568,30.8605333 177.7788,31.4868 178.0228,32.0236 C178.2668,32.5604 178.592133,33.0158667 178.9988,33.39 C179.405467,33.7641333 179.869067,34.0488 180.3896,34.244 C180.910133,34.4392 181.4632,34.5368 182.0488,34.5368 Z M205.2776,34.5368 C207.2296,34.5368 208.872533,34.3578667 210.2064,34 C211.540267,33.6421333 212.622,33.1541333 213.4516,32.536 C214.2812,31.9178667 214.874933,31.1858667 215.2328,30.34 C215.590667,29.4941333 215.7696,28.5994667 215.7696,27.656 C215.7696,26.4522667 215.5256,25.4356 215.0376,24.606 C214.5496,23.7764 213.923333,23.0932 213.1588,22.5564 C212.394267,22.0196 211.540267,21.5722667 210.5968,21.2144 C209.653333,20.8565333 208.7424,20.5312 207.864,20.2384 C207.245867,20.0432 206.6684,19.8398667 206.1316,19.6284 C205.5948,19.4169333 205.123067,19.1973333 204.7164,18.9696 C204.309733,18.7418667 203.9844,18.4897333 203.7404,18.2132 C203.4964,17.9366667 203.3744,17.6194667 203.3744,17.2616 C203.3744,16.8386667 203.6428,16.4401333 204.1796,16.066 C204.7164,15.6918667 205.749333,15.5048 207.2784,15.5048 C208.7424,15.5048 210.06,15.6918667 211.2312,16.066 C212.4024,16.4401333 213.264533,16.7085333 213.8176,16.8712 L213.8176,16.8712 L214.7448,11.796 C213.801333,11.3730667 212.687067,11.0477333 211.402,10.82 C210.116933,10.5922667 208.726133,10.4784 207.2296,10.4784 C205.505333,10.4784 204.025067,10.6654667 202.7888,11.0396 C201.552533,11.4137333 200.535867,11.9342667 199.7388,12.6012 C198.941733,13.2681333 198.356133,14.0326667 197.982,14.8948 C197.607867,15.7569333 197.4208,16.676 197.4208,17.652 C197.4208,18.8557333 197.6648,19.8561333 198.1528,20.6532 C198.6408,21.4502667 199.258933,22.1090667 200.0072,22.6296 C200.755467,23.1501333 201.585067,23.5812 202.496,23.9228 C203.406933,24.2644 204.3016,24.5653333 205.18,24.8256 C205.798133,25.0208 206.391867,25.216 206.9612,25.4112 C207.530533,25.6064 208.0348,25.8097333 208.474,26.0212 C208.9132,26.2326667 209.2548,26.4848 209.4988,26.7776 C209.7428,27.0704 209.8648,27.4282667 209.8648,27.8512 C209.8648,28.5018667 209.4744,28.9329333 208.6936,29.1444 C207.9128,29.3558667 206.7904,29.4616 205.3264,29.4616 C203.992533,29.4616 202.683067,29.2664 201.398,28.876 C200.112933,28.4856 198.901067,28.0626667 197.7624,27.6072 L197.7624,27.6072 L196.8352,32.6336 C197.681067,32.9914667 198.803467,33.3981333 200.2024,33.8536 C201.601333,34.3090667 203.293067,34.5368 205.2776,34.5368 Z M227.6768,34 L227.6768,16.3344 C228.002133,16.2368 228.4332,16.1229333 228.97,15.9928 C229.5068,15.8626667 230.051733,15.7976 230.6048,15.7976 C231.9712,15.7976 232.8984,16.2693333 233.3864,17.2128 C233.8744,18.1562667 234.1184,19.7016 234.1184,21.8488 L234.1184,21.8488 L234.1184,34 L240.1208,34 L240.1208,21.068 C240.1208,19.5064 239.9744,18.0830667 239.6816,16.798 C239.3888,15.5129333 238.9008,14.4068 238.2176,13.4796 C237.5344,12.5524 236.623467,11.8366667 235.4848,11.3324 C234.346133,10.8281333 232.930933,10.576 231.2392,10.576 C230.718667,10.576 230.1168,10.6492 229.4336,10.7956 C228.7504,10.942 228.1648,11.0965333 227.6768,11.2592 L227.6768,11.2592 L227.6768,0.1328 L221.6744,1.1576 L221.6744,34 L227.6768,34 Z" id="license.sh" fill="#FFFFFF" fill-rule="nonzero"></path>
                <rect id="Rectangle" fill="#0EC164" x="244" y="36" width="22.4" height="6.4"></rect>
            </g>
        </g>
    </g>
</svg>